<?xml version="1.0" encoding="utf-8"?><svg xmlns="http://www.w3.org/2000/svg" xmlns:xlink="http://www.w3.org/1999/xlink"><symbol viewBox="0 0 22 16" id="list" xmlns="http://www.w3.org/2000/svg"><defs><path id="aa" d="M1484.63 272.51c0-.83.68-1.51 1.51-1.51h13.35a1.52 1.52 0 0 1 0 3.03h-13.34c-.84 0-1.52-.68-1.52-1.51z"/><path id="ab" d="M1484.63 279c0-.83.67-1.5 1.5-1.5h13.37a1.5 1.5 0 1 1 0 3h-13.37a1.5 1.5 0 0 1-1.5-1.5z"/><path id="ac" d="M1484.63 285.49c0-.84.68-1.52 1.51-1.52h13.35a1.52 1.52 0 0 1 0 3.03h-13.34c-.84 0-1.52-.68-1.52-1.51z"/><path id="ad" d="M1479 272.51c0-.83.68-1.51 1.51-1.51h.26a1.52 1.52 0 0 1 0 3.03h-.25c-.84 0-1.52-.68-1.52-1.51z"/><path id="ae" d="M1479 279c0-.83.67-1.5 1.5-1.5h.28a1.5 1.5 0 1 1 0 3h-.28a1.5 1.5 0 0 1-1.5-1.5z"/><path id="af" d="M1479 285.49c0-.84.68-1.52 1.51-1.52h.26a1.52 1.52 0 0 1 0 3.03h-.25c-.84 0-1.52-.68-1.52-1.51z"/></defs><desc>Generated with Avocode.</desc><use xlink:href="#aa" transform="translate(-1479 -271)"/><use xlink:href="#ab" transform="translate(-1479 -271)"/><use xlink:href="#ac" transform="translate(-1479 -271)"/><use xlink:href="#ad" transform="translate(-1479 -271)"/><use xlink:href="#ae" transform="translate(-1479 -271)"/><use xlink:href="#af" transform="translate(-1479 -271)"/></symbol><symbol viewBox="0 0 510.127 510.127" id="ruble" xmlns="http://www.w3.org/2000/svg"><path d="M34.786 428.963h81.158v69.572c0 3.385 1.083 6.156 3.262 8.322 2.173 2.18 4.951 3.27 8.335 3.27h60.502c3.14 0 5.857-1.09 8.152-3.27 2.295-2.166 3.439-4.938 3.439-8.322v-69.572h182.964c3.377 0 6.156-1.076 8.334-3.256 2.18-2.178 3.262-4.951 3.262-8.336v-46.377c0-3.365-1.082-6.156-3.262-8.322-2.172-2.18-4.957-3.27-8.334-3.27h-182.97v-42.754h123.184c48.305 0 87.73-14.719 118.293-44.199 30.551-29.449 45.834-67.49 45.834-114.125 0-46.604-15.283-84.646-45.834-114.125C410.548 14.749 371.116 0 322.812 0H127.535c-3.385 0-6.157 1.089-8.335 3.256-2.173 2.179-3.262 4.969-3.262 8.335v227.896H34.786c-3.384 0-6.157 1.145-8.335 3.439-2.172 2.295-3.262 5.012-3.262 8.151v53.978c0 3.385 1.083 6.158 3.262 8.336 2.179 2.18 4.945 3.256 8.335 3.256h81.158v42.754H34.786c-3.384 0-6.157 1.09-8.335 3.27-2.172 2.166-3.262 4.951-3.262 8.322v46.377c0 3.385 1.083 6.158 3.262 8.336 2.178 2.181 4.95 3.257 8.335 3.257zM199.628 77.179h115.938c25.6 0 46.248 7.485 61.953 22.46 15.697 14.976 23.549 34.547 23.549 58.691 0 24.156-7.852 43.733-23.549 58.691-15.705 14.988-36.354 22.473-61.953 22.473H199.628V77.179z"/></symbol><symbol viewBox="0 0 27 27" id="sign" xmlns="http://www.w3.org/2000/svg"><defs><path id="ca" d="M1627.81 58.06c5.63 0 10.19 4.4 10.19 9.84 0 5.43-4.56 9.84-10.19 9.84-5.62 0-10.19-4.4-10.19-9.84 0-5.43 4.57-9.84 10.19-9.84z"/><path id="cb" d="M1613.63 81.75V54.06H1642v27.69zm3.99-13.85c0 5.43 4.57 9.84 10.19 9.84 5.63 0 10.19-4.4 10.19-9.84 0-5.43-4.56-9.84-10.19-9.84-5.62 0-10.19 4.4-10.19 9.84z"/><mask id="cd" width="2" height="2" x="-1" y="-1"><path d="M1617.63 58.06H1638v19.69h-20.37z"/><use xlink:href="#ca"/></mask><filter id="cc" width="47.47" height="46.79" x="1600.53" y="40.96" filterUnits="userSpaceOnUse"><feOffset dx="-7.1" dy="-7.1" in="SourceGraphic" result="FeOffset1022Out"/><feGaussianBlur in="FeOffset1022Out" result="FeGaussianBlur1023Out" stdDeviation="0 0"/></filter><clipPath id="ce"><use xlink:href="#cb"/></clipPath></defs><desc>Generated with Avocode.</desc><g transform="translate(-1611 -51)"><g filter="url(#cc)"><use stroke-width="0" mask="url(#cd)" xlink:href="#ca"/><use xlink:href="#ca"/></g><use xlink:href="#ca"/><use xlink:href="#ca"/><use fill-opacity="0" stroke-linecap="round" stroke-linejoin="round" stroke-miterlimit="50" stroke-width="8" clip-path="url(#ce)" xlink:href="#ca"/></g></symbol></svg>